Coordinates
version=1
nRows=5
nColumns=40
inDegrees=yes

Units are S.I. units (second, meters, Newtons, ...)
If the header above contains a line with 'inDegrees', this indicates whether rotational values are in degrees (yes) or radians (no).

endheader
time	pelvis_tilt	pelvis_list	pelvis_rotation	pelvis_tx	pelvis_ty	pelvis_tz	hip_flexion_r	hip_adduction_r	hip_rotation_r	knee_angle_r	knee_angle_r_beta	ankle_angle_r	subtalar_angle_r	mtp_angle_r	hip_flexion_l	hip_adduction_l	hip_rotation_l	knee_angle_l	knee_angle_l_beta	ankle_angle_l	subtalar_angle_l	mtp_angle_l	lumbar_extension	lumbar_bending	lumbar_rotation	arm_flex_r	arm_add_r	arm_rot_r	elbow_flex_r	pro_sup_r	wrist_flex_r	wrist_dev_r	arm_flex_l	arm_add_l	arm_rot_l	elbow_flex_l	pro_sup_l	wrist_flex_l	wrist_dev_l
      7.91000000	     89.65635107	     77.23997896	     89.72914004	      0.30756352	      0.93912719	      0.76360289	     31.28580034	    -35.27396293	    -26.11134509	      9.26897776	      0.16177418	    -26.14683683	      0.00000000	      0.00000000	     26.86240371	    -36.57058637	    -29.78628996	      9.07781427	      0.15843775	    -23.93511639	      0.00000000	      0.00000000	    -22.02350585	     -5.19604354	      6.65444780	      0.00000000	    -15.00010831	      0.00000000	     75.00017585	     45.00000026	      0.00000000	      0.00000000	      0.00000000	    -15.00010831	      0.00000000	     75.00017585	     45.00000026	      0.00000000	      0.00000000
      7.91500000	     89.65655473	     77.05699599	     89.73062334	      0.30860371	      0.93903455	      0.76312109	     31.54172740	    -35.27676874	    -26.07684998	      9.21427974	      0.16081952	    -26.29933038	      0.00000000	      0.00000000	     27.21195175	    -36.59648443	    -29.74501760	      9.16970586	      0.16004156	    -23.93656724	      0.00000000	      0.00000000	    -22.21970169	     -5.20822086	      6.50289554	      0.00000000	    -15.00010639	      0.00000000	     75.00017585	     45.00000026	      0.00000000	      0.00000000	      0.00000000	    -15.00010639	      0.00000000	     75.00017585	     45.00000026	      0.00000000	      0.00000000
      7.92000000	     89.65300409	     76.87688756	     89.72828273	      0.30961928	      0.93888836	      0.76260861	     31.82080324	    -35.28281343	    -26.01786276	      9.19002002	      0.16039611	    -26.38907922	      0.00000000	      0.00000000	     27.60404520	    -36.65764050	    -29.77274032	      9.36920112	      0.16352341	    -23.94475115	      0.00000000	      0.00000000	    -22.43895218	     -5.23291348	      6.52792172	      0.00000000	    -15.00010612	      0.00000000	     75.00017585	     45.00000026	      0.00000000	      0.00000000	      0.00000000	    -15.00010612	      0.00000000	     75.00017585	     45.00000026	      0.00000000	      0.00000000
      7.92500000	     89.64517221	     76.66685341	     89.72547806	      0.31075430	      0.93875922	      0.76205461	     32.15830068	    -35.29233108	    -25.92636986	      9.21309304	      0.16079881	    -26.44527112	      0.00000000	      0.00000000	     28.04972676	    -36.72132543	    -29.79011780	      9.58960302	      0.16737015	    -23.97963676	      0.00000000	      0.00000000	    -22.65514042	     -5.26378515	      6.67531439	      0.00000000	    -15.00010591	      0.00000000	     75.00017585	     45.00000026	      0.00000000	      0.00000000	      0.00000000	    -15.00010591	      0.00000000	     75.00017585	     45.00000026	      0.00000000	      0.00000000
      7.93000000	     89.65130189	     76.42848791	     89.72864809	      0.31182317	      0.93862899	      0.76140246	     32.53650108	    -35.32054412	    -25.85582336	      9.26495323	      0.16170394	    -26.44909796	      0.00000000	      0.00000000	     28.48129947	    -36.75801128	    -29.68312936	      9.72274973	      0.16969400	    -23.92301630	      0.00000000	      0.00000000	    -22.78366196	     -5.28521163	      6.48595921	      0.00000000	    -15.00010463	      0.00000000	     75.00017585	     45.00000026	      0.00000000	      0.00000000	      0.00000000	    -15.00010463	      0.00000000	     75.00017585	     45.00000026	      0.00000000	      0.00000000
